<svg width="60" height="60" xmlns="http://www.w3.org/2000/svg" viewBox="0 0 700 700"><title>noun beauty 2116201</title><g fill="#9fbcbe" class="nc-icon-wrapper"><path d="M552.41 107.2c20.59 50.61 20.58 57.05 24.13 114.05 9.59-4.29 20.06-10.95 30.3-21.23 0 0-10.73 18.46-29.85 27.36 8.51 93.98 85.93 63.33 20.11 100.89-4.82 28.21 18.8 41-9.48 43.1 30.79 25.32-2.1 23.63-3.66 32.79-1.84 10.71 12.5 20.74 6.79 43.85-5.71 23.11-93.7 2.77-125.64 7.03-60.86 8.1-94.06 60.56-92.79 121.37 0.62 29.74-137.8-116.35 91.67-271.75 88.25-57.04 87.91-198.03 88.42-197.45z m-403.32 247c72.32-69.82 10.82-394.63 189.82-366.92l64.08 10c-36.52-15.35-82.02-26.89-101.6-27.27-204.35-4.04-93.1 285.21-152.3 384.2z m360.07-232.93c-12.88 229.03-356.02 209.2-163.66 443.8-275.7-205.72 133.39-251.43 163.66-443.8z" fill-rule="evenodd"></path></g></svg>